<mxfile host="app.diagrams.net" modified="2021-08-02T07:19:04.694Z" agent="5.0 (Macintosh; Intel Mac OS X 10_15_7) AppleWebKit/537.36 (KHTML, like Gecko) Chrome/92.0.4515.107 Safari/537.36" etag="ZgQbvhWLCOU7VoBb3smy" version="14.9.3" type="github">
  <diagram id="3g7Ms5rfd4EL67deeAgw" name="Page-1">
    <mxGraphModel dx="983" dy="548" grid="1" gridSize="10" guides="1" tooltips="1" connect="1" arrows="1" fold="1" page="1" pageScale="1" pageWidth="827" pageHeight="1169" math="0" shadow="0">
      <root>
        <mxCell id="0" />
        <mxCell id="1" parent="0" />
        <mxCell id="PnIn3oq7qtBlqW6AIDF7-44" value="popup.js" style="rounded=0;whiteSpace=wrap;html=1;fillColor=#dae8fc;strokeColor=#6c8ebf;" parent="1" vertex="1">
          <mxGeometry x="40" y="710" width="760" height="60" as="geometry" />
        </mxCell>
        <mxCell id="PnIn3oq7qtBlqW6AIDF7-45" value="popup-manager.js" style="rounded=0;whiteSpace=wrap;html=1;fillColor=#ffe6cc;strokeColor=#d79b00;" parent="1" vertex="1">
          <mxGeometry x="180" y="890" width="420" height="60" as="geometry" />
        </mxCell>
        <mxCell id="PnIn3oq7qtBlqW6AIDF7-49" value="dom.js&lt;br&gt;" style="rounded=0;whiteSpace=wrap;html=1;fillColor=#ffe6cc;strokeColor=#d79b00;" parent="1" vertex="1">
          <mxGeometry x="620" y="890" width="180" height="60" as="geometry" />
        </mxCell>
        <mxCell id="PnIn3oq7qtBlqW6AIDF7-52" value="scrollbar-width.js" style="rounded=0;whiteSpace=wrap;html=1;fillColor=#ffe6cc;strokeColor=#d79b00;" parent="1" vertex="1">
          <mxGeometry x="40" y="890" width="120" height="60" as="geometry" />
        </mxCell>
        <mxCell id="PnIn3oq7qtBlqW6AIDF7-54" value="getScrollBarWidth" style="rounded=0;whiteSpace=wrap;html=1;fillColor=#d5e8d4;strokeColor=#82b366;" parent="1" vertex="1">
          <mxGeometry x="40" y="800" width="120" height="60" as="geometry" />
        </mxCell>
        <mxCell id="PnIn3oq7qtBlqW6AIDF7-55" value="getModal" style="rounded=0;whiteSpace=wrap;html=1;fillColor=#d5e8d4;strokeColor=#82b366;" parent="1" vertex="1">
          <mxGeometry x="180" y="800" width="80" height="60" as="geometry" />
        </mxCell>
        <mxCell id="PnIn3oq7qtBlqW6AIDF7-56" value="openModal" style="rounded=0;whiteSpace=wrap;html=1;fillColor=#d5e8d4;strokeColor=#82b366;" parent="1" vertex="1">
          <mxGeometry x="280" y="800" width="90" height="60" as="geometry" />
        </mxCell>
        <mxCell id="PnIn3oq7qtBlqW6AIDF7-58" value="getStyle&lt;br&gt;" style="rounded=0;whiteSpace=wrap;html=1;fillColor=#d5e8d4;strokeColor=#82b366;" parent="1" vertex="1">
          <mxGeometry x="620" y="800" width="70" height="60" as="geometry" />
        </mxCell>
        <mxCell id="PnIn3oq7qtBlqW6AIDF7-59" value="CRUDclass" style="rounded=0;whiteSpace=wrap;html=1;fillColor=#d5e8d4;strokeColor=#82b366;" parent="1" vertex="1">
          <mxGeometry x="710" y="800" width="90" height="60" as="geometry" />
        </mxCell>
        <mxCell id="PnIn3oq7qtBlqW6AIDF7-60" value="modalStack" style="rounded=0;whiteSpace=wrap;html=1;fillColor=#d5e8d4;strokeColor=#82b366;" parent="1" vertex="1">
          <mxGeometry x="390" y="800" width="90" height="60" as="geometry" />
        </mxCell>
        <mxCell id="PnIn3oq7qtBlqW6AIDF7-63" value="dynamicZIndex" style="rounded=0;whiteSpace=wrap;html=1;fillColor=#d5e8d4;strokeColor=#82b366;" parent="1" vertex="1">
          <mxGeometry x="500" y="800" width="100" height="60" as="geometry" />
        </mxCell>
        <mxCell id="dKtcY1QQRIedavom9xA3-1" value="mixins" style="rounded=0;whiteSpace=wrap;html=1;fillColor=#f5f5f5;strokeColor=#666666;fontColor=#333333;" vertex="1" parent="1">
          <mxGeometry x="40" y="620" width="90" height="60" as="geometry" />
        </mxCell>
        <mxCell id="dKtcY1QQRIedavom9xA3-2" value="props" style="rounded=0;whiteSpace=wrap;html=1;fillColor=#f5f5f5;strokeColor=#666666;fontColor=#333333;" vertex="1" parent="1">
          <mxGeometry x="150" y="620" width="90" height="60" as="geometry" />
        </mxCell>
        <mxCell id="dKtcY1QQRIedavom9xA3-4" value="idseed" style="rounded=0;whiteSpace=wrap;html=1;fillColor=#f5f5f5;strokeColor=#666666;fontColor=#333333;" vertex="1" parent="1">
          <mxGeometry x="260" y="620" width="90" height="60" as="geometry" />
        </mxCell>
        <mxCell id="dKtcY1QQRIedavom9xA3-5" value="lockScroll" style="rounded=0;whiteSpace=wrap;html=1;fillColor=#f5f5f5;strokeColor=#666666;fontColor=#333333;" vertex="1" parent="1">
          <mxGeometry x="370" y="620" width="110" height="60" as="geometry" />
        </mxCell>
        <mxCell id="dKtcY1QQRIedavom9xA3-6" value="transtion" style="rounded=0;whiteSpace=wrap;html=1;fillColor=#f5f5f5;strokeColor=#666666;fontColor=#333333;" vertex="1" parent="1">
          <mxGeometry x="500" y="620" width="100" height="60" as="geometry" />
        </mxCell>
        <mxCell id="dKtcY1QQRIedavom9xA3-8" value="computedBodyPaddingRight&lt;br&gt;" style="rounded=0;whiteSpace=wrap;html=1;fillColor=#f5f5f5;strokeColor=#666666;fontColor=#333333;" vertex="1" parent="1">
          <mxGeometry x="620" y="620" width="180" height="60" as="geometry" />
        </mxCell>
      </root>
    </mxGraphModel>
  </diagram>
</mxfile>
